Coordinates
version=1
nRows=4
nColumns=63
inDegrees=yes

Units are S.I. units (second, meters, Newtons, ...)
If the header above contains a line with 'inDegrees', this indicates whether rotational values are in degrees (yes) or radians (no).

endheader
time	pelvis_tilt	pelvis_list	pelvis_rotation	pelvis_tx	pelvis_ty	pelvis_tz	hip_flexion_r	hip_adduction_r	hip_rotation_r	knee_angle_r	knee_angle_r_beta	ankle_angle_r	subtalar_angle_r	mtp_angle_r	hip_flexion_l	hip_adduction_l	hip_rotation_l	knee_angle_l	knee_angle_l_beta	ankle_angle_l	subtalar_angle_l	mtp_angle_l	L5_S1_Flex_Ext	L5_S1_Lat_Bending	L5_S1_axial_rotation	L4_L5_Flex_Ext	L4_L5_Lat_Bending	L4_L5_axial_rotation	L3_L4_Flex_Ext	L3_L4_Lat_Bending	L3_L4_axial_rotation	L2_L3_Flex_Ext	L2_L3_Lat_Bending	L2_L3_axial_rotation	L1_L2_Flex_Ext	L1_L2_Lat_Bending	L1_L2_axial_rotation	L1_T12_Flex_Ext	L1_T12_Lat_Bending	L1_T12_axial_rotation	Abs_r3	Abs_r2	Abs_r1	Abs_t1	Abs_t2	neck_flexion	neck_bending	neck_rotation	arm_flex_r	arm_add_r	arm_rot_r	elbow_flex_r	pro_sup_r	wrist_flex_r	wrist_dev_r	arm_flex_l	arm_add_l	arm_rot_l	elbow_flex_l	pro_sup_l	wrist_flex_l	wrist_dev_l
      0.03333333	     -2.82967829	     -2.64863027	      5.29096312	     -2.49417187	      0.91293516	      0.37902046	      2.29181628	      1.00084046	    -10.38423974	      2.92734406	      0.05109179	      9.65721480	    -14.29020549	      0.00000000	     11.39092809	     -3.07502310	      1.76264212	     16.71876562	      0.29179751	     16.15806056	    -11.35169781	      0.00000000	      0.01679731	      0.15584722	     -1.31576466	      0.03119429	      0.20727680	     -1.39799996	      0.02759631	      0.37892693	     -1.39799996	      0.01919765	      0.37892693	     -1.15129408	      0.01559799	      0.31780365	     -1.06905879	      0.00959798	      0.24140735	     -0.98682350	      0.11998153	      1.76297494	     -7.31788833	      0.00000000	      0.00000000	      0.00000000	      0.00000000	      0.00000001	      5.41415769	    -14.16848074	     47.79208647	     26.91998207	     56.46517784	      0.00000000	      4.71631346	     -1.10954692	    -12.73726635	     29.50071374	     29.97652102	     62.37682006	      0.00000000	      4.71631346
      0.06666667	     -2.80140289	     -2.83570739	      4.77724489	     -2.49423579	      0.91251456	      0.37817570	      2.36493582	      1.06171265	     -9.79922645	      3.07125375	      0.05360349	      9.98533759	    -14.41877835	      0.00000000	     11.51969643	     -3.26348359	      1.60588426	     17.14447204	      0.29922749	     16.41314595	    -11.54447185	      0.00000000	      0.01482808	      0.17943277	     -1.24923996	      0.02753723	      0.23864558	     -1.32731746	      0.02436106	      0.43627284	     -1.32731746	      0.01694702	      0.43627284	     -1.09308497	      0.01376936	      0.36589930	     -1.01500747	      0.00847277	      0.27794136	     -0.93692997	      0.10591551	      2.02977937	     -6.94789789	      0.00000000	      0.00000000	      0.00000000	      0.00000000	      0.00000001	      5.73984303	    -14.10529204	     47.95382603	     26.49272787	     56.48931024	      0.00000000	      4.72222084	     -0.92907080	    -12.51257110	     29.52281728	     29.66186703	     62.42560605	      0.00000000	      4.72222084
      0.10000000	     -2.75300157	     -3.15884192	      4.33887922	     -2.49429648	      0.91221679	      0.37687757	      2.37756760	      1.25798457	     -9.27935234	      3.15640497	      0.05508966	     10.15445495	    -14.57941971	      0.00000000	     11.69639965	     -3.57461409	      1.40866831	     17.66456269	      0.30830478	     16.74128680	    -11.60154990	      0.00000000	      0.01391675	      0.21185468	     -1.14856656	      0.02584480	      0.28176672	     -1.22035197	      0.02286383	      0.51510346	     -1.22035197	      0.01590545	      0.51510346	     -1.00499574	      0.01292309	      0.43201405	     -0.93321033	      0.00795203	      0.32816289	     -0.86142492	      0.09940595	      2.39654246	     -6.38798265	      0.00000000	      0.00000000	      0.00000000	      0.00000000	      0.00000001	      5.92246058	    -14.26299974	     48.26648032	     26.29084474	     56.53683844	      0.00000000	      4.72848121	     -0.57876805	    -12.19524249	     29.64037090	     29.21028971	     62.49303091	      0.00000000	      4.72848121
      0.13333333	     -2.63849079	     -3.66413450	      4.05599284	     -2.49435511	      0.91212008	      0.37469855	      2.24997299	      1.64295879	     -8.44996845	      3.17888115	      0.05548194	      9.96143112	    -15.49234057	      0.00000000	     11.95637312	     -4.09177269	      0.87585675	     18.43319763	      0.32171999	     17.48609148	    -10.85464500	      0.00000000	      0.01275061	      0.25534044	     -0.99693282	      0.02367915	      0.33960279	     -1.05924113	      0.02094797	      0.62083475	     -1.05924113	      0.01457267	      0.62083475	     -0.87231622	      0.01184021	      0.52069023	     -0.81000792	      0.00728570	      0.39552234	     -0.74769962	      0.09107630	      2.88846213	     -5.54464129	      0.00000000	      0.00000000	      0.00000000	      0.00000000	      0.00000001	      6.09289275	    -14.78109986	     49.77809407	     26.13686682	     56.66813666	      0.00000000	      4.76418228	      0.27024832	    -11.93642738	     31.43505439	     28.47174154	     63.03442026	      0.00000000	      4.76418228
